<svg width="1920" height="1331" viewBox="0 0 1920 1331" fill="none" xmlns="http://www.w3.org/2000/svg">
<g clip-path="url(#clip0_4015_9)">
<path d="M591.581 266.364C628.469 194.92 570.154 83.4898 476.519 205.653C461.166 225.684 430.999 256.464 391.467 291.13C355.254 322.886 291.305 296.347 233.573 326.494C143.032 373.772 176.883 503.202 127.772 526.548C63.4488 557.125 -9.22509 525.849 -63.946 523.145C-115.46 520.599 -171.839 542.662 -218.659 576.432C-300.8 635.678 -353.522 730.958 -298.944 792.614C-271.622 823.479 -217.412 845.919 -126.543 851.194C-85.9155 853.552 -51.1881 856.735 -21.5816 860.827C54.6204 871.36 -34.3073 937.311 14.6569 991.691C42.5566 1022.68 140.042 986.351 127.818 1045.3C119.126 1087.22 107.487 1137 103.138 1195.75C95.4998 1298.93 147.046 1366.53 234.541 1295.49C275.844 1261.95 325.158 1197.52 380.038 1091.35C415.158 1023.41 453.947 1065.63 524.547 1004.03C595.148 942.433 587.295 873.817 642.271 873.95L643.372 873.953C685.273 874.057 729.963 874.168 784.853 843.591C832.136 817.253 867.466 779.722 885.813 742.127C905.448 701.891 905.631 661.582 880.195 634.836C854.673 608 803.36 594.821 720.026 609.074C665.083 618.472 724.105 528.125 675.441 494.942C626.777 461.76 549.153 528.362 545.425 482.932C538.947 404.018 548.378 350.036 591.581 266.364Z" stroke="url(#paint0_linear_4015_9)" stroke-width="2"/>
<path d="M379.528 645.289C385.213 634.344 370.846 624.406 361.233 632.834C350.287 642.43 341.22 660.105 330.458 669.931C309.678 688.904 298.243 688.813 276.264 687.841C268.391 687.486 259.759 690.896 252.581 696.089C239.986 705.2 231.864 719.799 240.165 729.187C244.321 733.887 252.592 737.281 266.477 738.026C272.686 738.36 277.992 738.823 282.514 739.429C302.881 741.384 306.142 758.976 305.227 767.528C303.87 773.941 302.058 781.557 301.354 790.541C300.118 806.317 312.237 816.147 321.373 805.698C334.279 790.936 366.313 719.773 395.676 731.023C409.316 736.249 418.457 726.44 421.286 720.681C424.314 714.518 424.369 708.356 420.499 704.285C416.616 700.2 402.083 701.574 396.035 700.454C373.706 696.32 357.177 689.221 379.528 645.289Z" stroke="url(#paint1_linear_4015_9)" stroke-width="2"/>
<path d="M467.178 243.471C552.739 132.579 605.999 234.439 572.182 299.935C530.867 380.035 523.789 429.799 531.709 501.982C535.377 543.367 606.467 482.768 651.186 512.99C695.906 543.212 642.624 625.476 692.791 617.113C768.964 604.516 815.649 617.068 838.598 642.042C861.614 666.637 861.18 703.665 842.923 740.499C825.839 774.931 793.18 809.178 749.541 832.902C696.498 859.935 652.687 866.02 613.11 867.258C562.678 867.607 569.343 930.05 504.744 985.807C440.145 1041.57 404.604 1002.57 372.705 1063.67C322.836 1159.45 278.131 1217.38 240.673 1247.32C161.108 1311.57 114.151 1249.47 120.802 1155.07C124.461 1101.1 134.512 1055.36 141.496 1017.13C152.207 963.437 63.03 996.441 37.0821 968.216C-8.09854 918.701 72.3081 858.602 2.58339 848.877C-24.7463 845.012 -56.6252 841.931 -93.7794 839.571C-177.212 833.915 -225.805 812.177 -249.526 783.273C-298.861 726.94 -250.538 640.058 -175.439 586.025C-132.475 555.17 -80.806 535.03 -33.5795 537.365C18.1999 539.923 85.3588 568.394 145.758 538.864C190.926 517.181 160.57 398.798 243.396 355.166C296.371 327.121 355.007 350.652 388.449 321.328C424.85 289.408 452.839 261.44 467.178 243.471Z" stroke="url(#paint2_linear_4015_9)" stroke-width="2"/>
<path d="M457.482 282.92C534.666 183.641 582.837 275.737 552.233 335.099C512.984 411.392 508.318 456.815 517.726 522.104C521.362 559.351 585.695 504.963 626.391 532.194C667.087 559.425 619.747 633.362 665.011 626.099C733.831 615.259 775.789 627.194 796.135 650.268C816.7 672.675 816.049 706.331 799.248 739.659C783.499 770.83 753.619 801.683 713.751 822.695C663.187 845.801 620.675 858.291 583.837 860.829C538.07 861.612 543.589 917.739 485.195 967.465C426.801 1017.19 394.555 981.479 366.008 1035.57C321.354 1120.69 281.415 1171.95 247.918 1198.17C176.528 1255.4 134.215 1198.91 139.776 1113.52C142.687 1064.46 151.085 1022.89 156.311 988.439C165.435 940.14 84.8079 969.663 60.8481 944.241C19.5135 899.666 91.1544 845.635 28.0634 836.676C3.07191 833.024 -25.8858 830.023 -59.4807 827.632C-135.285 821.533 -178.168 800.507 -198.261 773.613C-242.288 722.692 -198.557 644.459 -130.727 595.836C-91.7495 568.009 -44.9313 549.888 -2.10213 552.05C46.6139 554.505 108.124 580.165 164.425 551.811C205.524 531.884 178.626 424.802 253.5 384.997C301.566 359.168 354.77 379.692 385.333 352.899C418.487 323.836 444.207 298.773 457.482 282.92Z" stroke="url(#paint3_linear_4015_9)" stroke-width="2"/>
<path d="M448.137 320.736C517.248 232.729 560.358 315.249 532.826 368.663C495.467 441.383 493.154 482.589 504.005 541.147C507.579 574.349 565.377 525.965 602.126 550.233C638.876 574.5 597.276 640.353 637.761 634.123C699.419 624.94 736.747 636.244 754.52 657.455C772.664 677.711 771.759 708.082 756.337 738.008C741.849 766.014 714.639 793.584 678.415 811.981C630.177 831.271 588.852 850.234 554.659 854.113C513.438 855.38 517.767 905.33 465.374 949.216C412.982 993.103 383.984 960.616 358.656 1007.86C319.01 1082.6 283.68 1127.35 254.027 1149.97C190.567 1200.4 152.847 1149.42 157.423 1072.82C159.645 1028.53 166.455 991.005 169.974 960.244C177.584 917.204 105.268 943.407 83.2617 920.746C45.7137 881.039 108.832 832.859 52.2207 824.71C29.5066 821.286 3.39821 818.387 -26.7221 815.995C-95.0879 809.517 -132.352 789.195 -148.844 764.265C-187.624 718.672 -148.29 648.838 -87.5014 605.428C-52.3811 580.517 -10.2737 564.317 28.2665 566.268C74.0411 568.577 130.034 591.43 182.409 564.123C219.564 545.859 196.166 449.829 263.323 413.668C306.631 389.94 354.517 407.454 382.309 383.093C412.332 356.776 435.875 334.525 448.137 320.736Z" stroke="url(#paint4_linear_4015_9)" stroke-width="2"/>
<path d="M439.428 359.181C500.48 282.467 538.418 355.3 513.935 402.742C478.431 471.863 478.439 508.817 490.673 560.579C494.153 589.703 545.408 547.314 578.156 568.565C610.904 589.816 575.027 647.561 610.702 642.335C665.148 634.762 697.802 645.395 712.966 664.709C728.654 682.779 727.47 709.84 713.412 736.351C700.175 761.181 675.635 785.466 643.072 801.263C597.184 816.762 557.057 842.228 525.534 847.478C488.895 849.265 491.986 892.989 445.604 931.041C399.222 969.093 373.528 939.887 351.402 980.268C316.737 1044.58 286.008 1082.82 260.208 1101.84C204.694 1145.49 171.646 1100.08 175.298 1032.34C176.868 992.87 182.117 959.412 183.95 932.363C190.078 894.616 126.115 917.537 106.101 897.678C72.4073 862.908 126.986 820.568 76.9134 813.285C56.5 810.113 33.2672 807.342 6.65107 804.977C-54.2088 798.184 -85.8003 778.615 -98.6507 755.684C-132.108 715.492 -97.1455 654.086 -43.4167 615.875C-12.163 593.87 25.2097 579.571 59.4245 581.274C102.216 583.394 152.622 603.369 201.052 577.084C234.246 560.465 214.454 475.594 273.865 443.052C312.397 421.406 354.908 435.851 379.925 413.918C406.812 390.345 428.178 370.907 439.428 359.181Z" stroke="url(#paint5_linear_4015_9)" stroke-width="2"/>
<path d="M429.602 398.735C482.441 333.467 515.245 396.572 493.891 437.96C460.357 503.361 462.723 536.018 476.382 580.938C479.796 605.954 524.402 569.666 553.135 587.912C581.869 606.157 551.816 655.688 582.636 651.512C629.801 645.618 657.755 655.602 670.314 673.014C683.55 688.895 682.117 712.615 669.471 735.664C657.525 757.275 635.711 778.222 606.864 791.365C563.4 803.01 524.544 834.898 495.731 841.478C463.718 843.741 465.616 881.194 425.339 913.318C385.063 945.442 362.67 919.522 343.816 952.97C314.242 1006.75 288.193 1038.4 266.296 1053.77C218.837 1090.52 190.448 1050.71 193.099 991.903C193.972 957.299 197.618 927.957 197.735 904.653C202.332 872.249 146.82 891.793 128.8 874.736C98.9607 844.906 144.893 808.515 101.407 802.052C83.3149 799.112 62.981 796.446 39.8967 794.082C-13.3949 786.918 -39.3 768.089 -48.5215 747.168C-76.6639 712.386 -46.1804 659.517 0.386186 626.607C27.7133 607.568 60.2933 595.226 90.1458 596.717C129.906 598.692 174.689 615.821 219.088 590.642C248.266 575.725 232.008 502.086 283.57 473.265C317.259 453.77 354.363 465.178 376.552 445.726C400.249 424.952 419.39 408.372 429.602 398.735Z" stroke="url(#paint6_linear_4015_9)" stroke-width="2"/>
<path d="M420.242 436.535C465.004 382.551 492.735 436.066 474.452 471.501C442.799 533.338 447.522 561.773 462.626 599.951C465.977 620.916 504.044 590.636 528.824 605.912C553.605 621.189 529.298 662.627 555.334 659.482C595.327 655.244 618.644 664.596 628.624 680.143C639.433 693.869 637.744 714.301 626.474 733.945C615.789 752.39 596.646 770.051 571.446 780.577C530.303 788.403 492.622 826.794 466.454 834.723C438.992 837.475 439.693 868.742 405.423 895.021C371.152 921.3 352.014 898.611 336.381 925.207C311.819 968.582 290.382 993.729 272.334 1005.48C232.813 1035.44 209.028 1001.14 210.696 951.126C210.881 921.307 212.939 896.012 211.346 876.401C214.43 849.263 167.237 865.488 151.172 851.198C125.126 826.244 162.526 795.708 125.528 790.059C109.716 787.35 92.2347 784.788 72.6295 782.424C26.7851 774.883 6.5105 756.758 0.900895 737.801C-21.9835 708.355 4.10261 663.894 43.621 636.199C67.0887 620.077 94.9534 609.656 120.512 610.933C157.332 612.758 196.59 627.072 237.066 602.933C262.298 589.676 249.552 527.104 293.391 501.927C322.318 484.53 354.098 492.92 373.515 475.899C394.078 457.872 411.042 444.107 420.242 436.535Z" stroke="url(#paint7_linear_4015_9)" stroke-width="2"/>
<path d="M411.511 474.955C448.2 432.275 470.752 476.091 455.52 505.548C425.697 563.79 432.736 587.955 449.221 619.313C452.478 636.194 483.992 611.914 504.767 624.168C525.542 636.422 506.964 669.738 528.183 667.599C560.954 664.972 579.587 673.651 586.952 687.301C595.301 698.841 593.331 715.961 583.428 732.188C573.994 747.455 557.525 761.832 535.994 769.76C497.217 773.813 460.689 818.724 437.184 828.032C414.306 831.305 413.771 856.345 385.522 876.785C357.273 897.225 341.446 877.822 329.026 897.546C309.458 930.485 292.635 949.113 278.45 957.263C246.887 980.422 227.781 951.714 228.528 910.562C228.063 885.569 228.561 864.355 225.282 848.468C226.882 826.632 188.053 839.574 173.983 828.092C151.796 808.084 180.648 783.401 150.197 778.621C136.689 776.166 122.089 773.733 105.993 771.397C67.6709 763.547 53.0838 746.17 51.1228 729.205C33.5664 705.164 55.2749 669.138 87.7254 646.647C107.322 633.433 130.446 624.913 151.674 625.94C185.504 627.561 219.168 638.988 255.704 615.861C276.973 604.249 267.838 552.844 303.925 531.288C328.075 515.975 354.479 521.292 371.119 506.7C388.546 491.418 403.328 480.464 411.511 474.955Z" stroke="url(#paint8_linear_4015_9)" stroke-width="2"/>
<path d="M402.364 512.959C430.954 481.583 448.509 515.876 436.37 539.39C408.446 594.134 417.9 614.112 435.911 638.776C439.133 651.623 464.108 633.372 480.968 642.692C497.828 652.012 485.03 677.238 501.48 676.159C527.106 675.232 541.127 683.318 545.93 695.131C551.872 704.538 549.662 718.387 541.143 731.212C532.976 743.315 519.176 754.398 501.276 759.684C464.759 759.859 429.388 811.358 408.502 822.013C390.156 825.756 388.448 844.629 366.205 859.198C343.961 873.768 331.349 857.554 322.168 870.414C307.641 892.937 295.445 905.038 285.111 909.557C261.493 925.887 246.939 902.637 246.647 870.245C245.458 850.01 244.334 832.822 239.308 820.611C239.363 804.026 208.833 813.608 196.686 804.867C178.239 789.693 198.541 770.883 174.544 766.873L173.893 766.743C162.843 764.537 151.288 762.23 138.898 759.915C107.974 751.621 98.9958 734.896 100.641 719.868C88.3042 701.118 105.591 673.499 130.995 656.245C146.735 645.96 165.156 639.384 182.112 640.224C213.058 641.739 241.254 650.401 273.894 628.316C291.226 618.377 285.537 577.979 313.908 560.088C333.301 546.883 354.415 549.209 368.285 537.053C382.58 524.522 395.189 516.394 402.364 512.959Z" stroke="url(#paint9_linear_4015_9)" stroke-width="2"/>
<path d="M392.454 552.49C412.826 532.561 425.218 557.093 416.207 574.541C390.268 625.499 402.048 641.158 421.438 658.953C424.583 667.683 442.898 655.531 455.724 661.833C468.551 668.134 461.568 685.138 473.152 685.098C491.479 685.835 500.788 693.254 502.982 703.149C506.464 710.357 504.004 720.852 496.899 730.211C490.028 739.089 478.962 746.833 464.793 749.473C430.751 745.822 396.681 803.654 378.528 815.627C364.82 819.847 361.917 832.439 345.789 841.086C329.661 849.734 320.368 836.827 314.457 842.76C305.018 854.754 297.499 860.273 291.071 861.152C275.513 870.593 265.638 852.967 264.364 829.532C262.491 814.179 259.779 801.122 253.057 792.667C251.593 781.435 229.533 787.649 219.397 781.722C204.83 771.504 216.489 758.645 199.099 755.469C190.185 753.465 181.329 751.228 172.237 748.877C148.911 740.24 145.624 724.286 150.891 711.285C143.881 697.965 156.688 678.891 174.919 666.938C186.724 659.619 200.341 654.996 212.921 655.615C240.794 656.969 263.334 662.768 291.913 641.806C305.218 633.571 303.081 604.439 323.589 590.273C338.13 579.223 353.819 578.509 364.853 568.839C375.949 559.113 386.324 553.84 392.454 552.49Z" stroke="url(#paint10_linear_4015_9)" stroke-width="2"/>
<path d="M297.914 814.672C297.914 814.672 285.308 803.267 283.054 788.716C280.499 778.202 276.202 769.241 267.78 764.518C264.801 758.6 251.141 761.472 242.991 758.339C232.264 753.043 235.334 746.094 224.496 743.746C217.892 741.98 211.921 739.853 206.343 737.51C190.551 728.52 192.932 713.302 201.818 702.295C200.103 694.359 208.469 683.765 219.585 677.071C227.49 672.694 236.344 670.007 244.585 670.407C269.443 671.593 286.387 674.546 310.976 654.662C320.293 648.109 321.69 630.147 334.404 619.667C344.136 610.746 354.45 607 362.679 599.789C370.608 592.839 378.761 593.394 383.873 591.123C397.264 585.175 403.359 597.411 397.447 608.846C373.427 656.126 387.541 667.502 408.335 678.475C411.408 683.118 423.119 677.02 431.949 680.323C440.778 683.627 439.577 692.466 446.332 693.462C457.416 695.856 462.046 702.624 461.642 710.626C462.68 715.655 459.965 722.829 454.256 728.752C448.665 734.434 440.304 738.866 429.829 738.878C398.201 731.421 365.344 795.669 349.876 808.978C340.765 813.682 336.667 820.04 326.606 822.803C316.545 825.567 299.329 815.253 297.914 814.672ZM297.914 814.672C297.863 814.625 300.78 816.164 297.914 814.672Z" stroke="url(#paint11_linear_4015_9)" stroke-width="2"/>
<path d="M1087.43 438.434C966.292 229.803 1179.55 146.52 1356.68 170.858C1458.74 180.36 1489.57 55.0348 1616.02 66.8876C1742.47 78.7405 1642.74 253.06 1837.25 274.948C2031.76 296.836 2032.46 633.944 1880.3 679.681C1728.13 725.419 1784.72 766.589 1664.75 929.377C1544.78 1092.16 1240.65 995.505 1256.12 800.838C1271.59 606.171 1218.56 664.28 1087.43 438.434Z" stroke="url(#paint12_linear_4015_9)" stroke-width="2"/>
<path d="M1465.21 522.824C1452.48 503.281 1475 459.909 1504.82 467.575C1532.12 474.595 1553.63 458.88 1571.16 460.537C1617.29 464.9 1604.23 477.517 1628.08 491.208C1657.11 507.868 1684.45 564.878 1632.21 579.246C1589.25 591.064 1608.11 609.383 1578.6 627.915C1549.09 646.448 1508.07 640 1496.14 596.602C1491.65 580.305 1486.41 555.372 1465.21 522.824Z" stroke="url(#paint13_linear_4015_9)" stroke-width="2"/>
<path d="M1121.47 445.014C1010.19 253.573 1206.11 173.919 1369.85 196.741C1465.1 206.018 1495.09 90.6565 1611.64 101.582C1730.78 112.754 1638.93 272.373 1817.93 293.516C1997.4 314.929 2000.52 626.573 1857.44 669.459C1715.2 712.114 1768.36 751.206 1656.61 900.88C1544.86 1050.55 1264.65 962.095 1277.63 781.18C1291.29 602.728 1242.61 653.288 1121.47 445.014Z" stroke="url(#paint14_linear_4015_9)" stroke-width="2"/>
<path d="M1155.51 451.595C1054.08 277.344 1232.66 201.317 1383.01 222.624C1471.47 231.675 1500.61 126.278 1607.25 136.278C1719.1 146.769 1635.13 291.687 1798.61 312.085C1963.04 333.023 1968.58 619.204 1834.58 659.238C1702.27 698.808 1752 735.824 1648.48 872.383C1544.95 1008.94 1288.66 928.685 1299.15 761.522C1310.99 599.285 1266.65 642.296 1155.51 451.595Z" stroke="url(#paint15_linear_4015_9)" stroke-width="2"/>
<path d="M1189.55 458.176C1097.98 301.115 1259.22 228.717 1396.17 248.508C1477.84 257.333 1506.13 161.901 1602.87 170.974C1707.42 180.784 1631.32 311.002 1779.29 330.655C1928.67 351.117 1936.64 611.835 1811.72 649.017C1689.34 685.504 1735.64 720.442 1640.34 843.887C1545.04 967.333 1312.67 895.276 1320.67 741.864C1330.7 595.844 1290.7 631.305 1189.55 458.176Z" stroke="url(#paint16_linear_4015_9)" stroke-width="2"/>
<path d="M1223.59 464.759C1141.87 324.888 1285.78 256.118 1409.33 274.393C1484.21 282.993 1511.65 197.525 1598.49 205.671C1695.73 214.8 1627.52 330.318 1759.97 349.226C1894.31 369.213 1904.7 604.467 1788.87 638.797C1676.41 672.2 1719.28 705.061 1632.21 815.392C1545.13 925.724 1336.68 861.868 1342.18 722.208C1350.4 592.403 1314.75 620.315 1223.59 464.759Z" stroke="url(#paint17_linear_4015_9)" stroke-width="2"/>
<path d="M1257.83 472.092C1185.97 349.411 1312.54 284.269 1422.7 301.029C1490.78 309.403 1517.38 233.9 1594.31 241.118C1684.26 249.567 1623.92 350.385 1740.86 368.547C1860.15 388.059 1872.96 597.849 1766.22 629.328C1663.69 659.648 1703.13 690.431 1624.28 787.648C1545.42 884.865 1360.89 829.211 1363.9 703.303C1370.31 589.713 1339 610.076 1257.83 472.092Z" stroke="url(#paint18_linear_4015_9)" stroke-width="2"/>
<path d="M1292.33 480.314C1230.32 374.822 1339.55 313.309 1436.32 328.553C1497.6 336.701 1523.35 271.163 1590.39 277.455C1673.03 285.222 1620.57 371.34 1722 388.757C1826.24 407.794 1841.47 592.121 1743.81 620.748C1651.21 647.984 1687.22 676.69 1616.6 760.793C1545.97 844.896 1385.35 797.442 1385.87 685.286C1390.46 587.912 1363.5 600.725 1292.33 480.314Z" stroke="url(#paint19_linear_4015_9)" stroke-width="2"/>
<path d="M1326.83 488.585C1274.68 400.283 1366.57 342.399 1449.95 356.127C1504.43 364.049 1529.33 308.476 1586.47 313.841C1661.81 320.927 1617.23 392.345 1703.14 409.017C1792.34 427.578 1810 586.442 1721.42 612.217C1638.75 636.369 1671.33 662.998 1608.93 733.987C1546.52 804.976 1409.82 765.723 1407.85 667.319C1410.63 586.16 1388.01 591.424 1326.83 488.585Z" stroke="url(#paint20_linear_4015_9)" stroke-width="2"/>
<path d="M1361.36 496.926C1319.06 425.814 1393.61 371.558 1463.6 383.77C1511.29 391.467 1535.34 345.858 1582.57 350.296C1650.61 356.702 1613.92 413.419 1684.31 429.346C1758.47 447.432 1778.55 580.832 1699.05 603.756C1626.3 624.824 1655.46 649.375 1601.28 707.25C1547.1 765.125 1434.32 734.074 1429.86 649.421C1430.82 584.478 1412.54 582.193 1361.36 496.926Z" stroke="url(#paint21_linear_4015_9)" stroke-width="2"/>
<path d="M1395.92 505.372C1363.48 451.45 1420.68 400.822 1477.28 411.519C1518.17 418.99 1541.38 383.346 1578.71 386.856C1639.45 392.581 1610.63 434.599 1665.51 449.78C1724.62 467.391 1747.12 575.327 1676.71 595.399C1613.89 613.384 1639.62 635.858 1593.66 680.619C1547.7 725.38 1458.85 702.529 1451.89 631.628C1451.04 582.9 1437.11 573.066 1395.92 505.372Z" stroke="url(#paint22_linear_4015_9)" stroke-width="2"/>
<path d="M1430.53 513.976C1407.94 477.244 1447.8 430.244 1491.01 439.425C1525.11 446.671 1547.47 420.991 1574.89 423.575C1628.33 428.618 1607.39 455.936 1646.76 470.372C1690.83 487.508 1715.75 569.981 1654.42 587.201C1601.53 602.102 1623.83 622.498 1586.09 654.145C1548.36 685.792 1483.42 671.143 1473.97 613.993C1471.31 581.481 1461.72 564.097 1430.53 513.976Z" stroke="url(#paint23_linear_4015_9)" stroke-width="2"/>
</g>
<defs>
<linearGradient id="paint0_linear_4015_9" x1="707.841" y1="287.63" x2="-89.7564" y2="1089.22" gradientUnits="userSpaceOnUse">
<stop stop-color="#6C9FD4"/>
<stop offset="0.528902" stop-color="#241A5D"/>
<stop offset="1" stop-color="#417EC1"/>
</linearGradient>
<linearGradient id="paint1_linear_4015_9" x1="395.009" y1="650.32" x2="272.581" y2="773.36" gradientUnits="userSpaceOnUse">
<stop stop-color="#6C9FD4"/>
<stop offset="0.528902" stop-color="#241A5D"/>
<stop offset="1" stop-color="#417EC1"/>
</linearGradient>
<linearGradient id="paint2_linear_4015_9" x1="679.262" y1="319.801" x2="-55.3039" y2="1058.04" gradientUnits="userSpaceOnUse">
<stop stop-color="#6C9FD4"/>
<stop offset="0.528902" stop-color="#241A5D"/>
<stop offset="1" stop-color="#417EC1"/>
</linearGradient>
<linearGradient id="paint3_linear_4015_9" x1="649.902" y1="353.62" x2="-19.2079" y2="1026.08" gradientUnits="userSpaceOnUse">
<stop stop-color="#6C9FD4"/>
<stop offset="0.528902" stop-color="#241A5D"/>
<stop offset="1" stop-color="#417EC1"/>
</linearGradient>
<linearGradient id="paint4_linear_4015_9" x1="621.323" y1="385.792" x2="15.2458" y2="994.901" gradientUnits="userSpaceOnUse">
<stop stop-color="#6C9FD4"/>
<stop offset="0.528902" stop-color="#241A5D"/>
<stop offset="1" stop-color="#417EC1"/>
</linearGradient>
<linearGradient id="paint5_linear_4015_9" x1="593.176" y1="418.392" x2="50.1306" y2="964.154" gradientUnits="userSpaceOnUse">
<stop stop-color="#6C9FD4"/>
<stop offset="0.528902" stop-color="#241A5D"/>
<stop offset="1" stop-color="#417EC1"/>
</linearGradient>
<linearGradient id="paint6_linear_4015_9" x1="563.815" y1="452.211" x2="85.0134" y2="933.407" gradientUnits="userSpaceOnUse">
<stop stop-color="#6C9FD4"/>
<stop offset="0.528902" stop-color="#241A5D"/>
<stop offset="1" stop-color="#417EC1"/>
</linearGradient>
<linearGradient id="paint7_linear_4015_9" x1="535.235" y1="484.382" x2="119.466" y2="902.231" gradientUnits="userSpaceOnUse">
<stop stop-color="#6C9FD4"/>
<stop offset="0.528902" stop-color="#241A5D"/>
<stop offset="1" stop-color="#417EC1"/>
</linearGradient>
<linearGradient id="paint8_linear_4015_9" x1="507.089" y1="516.983" x2="154.351" y2="871.485" gradientUnits="userSpaceOnUse">
<stop stop-color="#6C9FD4"/>
<stop offset="0.528902" stop-color="#241A5D"/>
<stop offset="1" stop-color="#417EC1"/>
</linearGradient>
<linearGradient id="paint9_linear_4015_9" x1="478.94" y1="549.584" x2="189.235" y2="840.738" gradientUnits="userSpaceOnUse">
<stop stop-color="#6C9FD4"/>
<stop offset="0.528902" stop-color="#241A5D"/>
<stop offset="1" stop-color="#417EC1"/>
</linearGradient>
<linearGradient id="paint10_linear_4015_9" x1="449.579" y1="583.403" x2="224.119" y2="809.991" gradientUnits="userSpaceOnUse">
<stop stop-color="#6C9FD4"/>
<stop offset="0.528902" stop-color="#241A5D"/>
<stop offset="1" stop-color="#417EC1"/>
</linearGradient>
<linearGradient id="paint11_linear_4015_9" x1="421.862" y1="616.432" x2="253.373" y2="785.764" gradientUnits="userSpaceOnUse">
<stop stop-color="#6C9FD4"/>
<stop offset="0.528902" stop-color="#241A5D"/>
<stop offset="1" stop-color="#417EC1"/>
</linearGradient>
<linearGradient id="paint12_linear_4015_9" x1="1439.99" y1="104.134" x2="1678.06" y2="969.737" gradientUnits="userSpaceOnUse">
<stop stop-color="#D75230"/>
<stop offset="0.442362" stop-color="#B64652"/>
<stop offset="1" stop-color="#EA7720"/>
</linearGradient>
<linearGradient id="paint13_linear_4015_9" x1="1541.6" y1="453.635" x2="1589.5" y2="627.803" gradientUnits="userSpaceOnUse">
<stop stop-color="#D75230"/>
<stop offset="0.442362" stop-color="#B64652"/>
<stop offset="1" stop-color="#EA7720"/>
</linearGradient>
<linearGradient id="paint14_linear_4015_9" x1="1449.19" y1="135.916" x2="1669.67" y2="937.549" gradientUnits="userSpaceOnUse">
<stop stop-color="#D75230"/>
<stop offset="0.442362" stop-color="#B64652"/>
<stop offset="1" stop-color="#EA7720"/>
</linearGradient>
<linearGradient id="paint15_linear_4015_9" x1="1458.4" y1="167.697" x2="1661.29" y2="905.362" gradientUnits="userSpaceOnUse">
<stop stop-color="#D75230"/>
<stop offset="0.442362" stop-color="#B64652"/>
<stop offset="1" stop-color="#EA7720"/>
</linearGradient>
<linearGradient id="paint16_linear_4015_9" x1="1467.61" y1="199.478" x2="1652.9" y2="873.176" gradientUnits="userSpaceOnUse">
<stop stop-color="#D75230"/>
<stop offset="0.442362" stop-color="#B64652"/>
<stop offset="1" stop-color="#EA7720"/>
</linearGradient>
<linearGradient id="paint17_linear_4015_9" x1="1476.82" y1="231.258" x2="1644.52" y2="840.991" gradientUnits="userSpaceOnUse">
<stop stop-color="#D75230"/>
<stop offset="0.442362" stop-color="#B64652"/>
<stop offset="1" stop-color="#EA7720"/>
</linearGradient>
<linearGradient id="paint18_linear_4015_9" x1="1486.03" y1="263.037" x2="1636.35" y2="809.558" gradientUnits="userSpaceOnUse">
<stop stop-color="#D75230"/>
<stop offset="0.442362" stop-color="#B64652"/>
<stop offset="1" stop-color="#EA7720"/>
</linearGradient>
<linearGradient id="paint19_linear_4015_9" x1="1495.25" y1="294.815" x2="1628.43" y2="779.014" gradientUnits="userSpaceOnUse">
<stop stop-color="#D75230"/>
<stop offset="0.442362" stop-color="#B64652"/>
<stop offset="1" stop-color="#EA7720"/>
</linearGradient>
<linearGradient id="paint20_linear_4015_9" x1="1504.48" y1="326.592" x2="1620.52" y2="748.521" gradientUnits="userSpaceOnUse">
<stop stop-color="#D75230"/>
<stop offset="0.442362" stop-color="#B64652"/>
<stop offset="1" stop-color="#EA7720"/>
</linearGradient>
<linearGradient id="paint21_linear_4015_9" x1="1513.71" y1="358.364" x2="1612.66" y2="718.1" gradientUnits="userSpaceOnUse">
<stop stop-color="#D75230"/>
<stop offset="0.442362" stop-color="#B64652"/>
<stop offset="1" stop-color="#EA7720"/>
</linearGradient>
<linearGradient id="paint22_linear_4015_9" x1="1522.97" y1="390.133" x2="1604.83" y2="687.789" gradientUnits="userSpaceOnUse">
<stop stop-color="#D75230"/>
<stop offset="0.442362" stop-color="#B64652"/>
<stop offset="1" stop-color="#EA7720"/>
</linearGradient>
<linearGradient id="paint23_linear_4015_9" x1="1532.25" y1="421.893" x2="1597.09" y2="657.65" gradientUnits="userSpaceOnUse">
<stop stop-color="#D75230"/>
<stop offset="0.442362" stop-color="#B64652"/>
<stop offset="1" stop-color="#EA7720"/>
</linearGradient>
<clipPath id="clip0_4015_9">
<rect width="1920" height="1331" fill="white"/>
</clipPath>
</defs>
</svg>
