<svg width="109" height="70" viewBox="0 0 109 70" fill="none" xmlns="http://www.w3.org/2000/svg">
<path d="M84.9386 60.5702C83.8206 60.5702 82.6743 60.5107 81.5107 60.3844C80.6023 60.288 79.6977 60.1581 78.7989 59.995C54.8507 55.6471 52.0262 37.1072 40.3255 42.1713C37.6382 43.3328 34.2954 44.7788 28.8575 44.3998C0.212059 42.3853 -13.8416 3.45962 18.8707 7.11695C33.9248 8.80151 35.0637 18.6979 44.6663 7.50329C58.4054 -8.5095 96.7729 1.87441 107.183 31.3453C112.42 46.1794 106.732 60.5671 84.9386 60.5702ZM42.9382 37.396C45.0893 37.396 47.5543 38.319 50.6644 41.2312C51.0769 41.6176 51.5429 42.0701 52.0576 42.5754C56.2544 46.6675 64.0686 54.2821 76.1153 56.4689C76.9157 56.6124 77.7234 56.732 78.5132 56.8123C85.2205 57.5249 90.9053 55.9881 94.9463 52.37C99.446 48.3411 101.22 42.221 99.9397 35.132C98.6598 28.0473 94.4809 20.8461 88.1719 14.856C81.8635 8.86528 74.1792 4.80199 66.5336 3.41546C58.8918 2.02955 52.2023 3.48599 47.7026 7.51433C46.8056 8.31742 46.0057 9.22191 45.3189 10.2095C45.245 10.3113 45.1847 10.3953 45.1527 10.4487L44.5851 11.2551C44.5358 11.3225 44.497 11.3777 44.4619 11.4311L44.3388 11.6028C44.2957 11.6586 44.2643 11.7046 44.2323 11.7469L44.1831 11.8168C44.127 11.8904 44.0772 11.964 43.9996 12.0731L43.834 12.3012L43.6678 12.5257L43.605 12.6097C43.5625 12.6698 43.52 12.7262 43.4781 12.7814L43.2805 13.0488C43.2351 13.1058 43.1915 13.1643 43.15 13.2242L43.1149 13.2732C43.0472 13.3572 42.9844 13.4449 42.9456 13.494L42.9173 13.5326C42.8576 13.6099 42.8003 13.6835 42.7696 13.7258L42.575 13.9748C40.9356 15.9506 38.4423 16.5822 35.3598 15.793C32.9834 15.1859 30.8743 13.8981 29.8622 13.28L29.5236 13.0733C26.6006 11.171 23.113 9.92557 19.7024 9.56008C11.0343 8.64391 5.5693 14.8842 7.77635 23.1935C8.97868 27.721 11.9411 32.1106 16.1126 35.5502C19.8545 38.6348 24.1036 40.5505 27.7678 40.8105C32.3974 41.1368 35.2613 39.8944 37.7934 38.7991C39.4082 38.108 41.0519 37.396 42.9382 37.396Z" fill="url(#paint0_linear_4015_83)"/>
<path d="M57.0941 56.6124C49.6462 56.6124 43.8839 53.5033 41.6867 47.4255C39.6982 41.9297 36.4187 38.8525 28.7522 41.9229C17.1001 46.5897 2.20056 42.8704 9.39115 28.8537C13.8096 20.2451 24.6465 12.9709 33.0567 12.9709C36.0056 12.9709 39.3343 13.7779 41.9224 16.0978C46.3445 20.0562 51.3946 17.2102 59.9389 11.8407C61.5328 10.8368 63.1833 9.80169 64.8548 8.82604C81.0909 -0.652125 99.044 0.825159 102.884 12.1878C104.732 17.6554 103.395 24.6181 99.1179 31.7911C94.8404 38.9672 88.154 45.4662 80.2832 50.0955C72.8531 54.4642 63.2788 56.6118 57.0935 56.6118L57.0941 56.6124ZM36.9112 38.2914C41.3899 38.2914 44.3807 40.4745 45.9641 44.8603C49.3987 54.36 63.0528 55.3497 77.0492 47.1134C83.7707 43.1586 89.4838 37.6033 93.1407 31.4697C96.7975 25.3349 97.9401 19.3829 96.3635 14.7162C93.084 5.01662 80.2444 2.63727 66.4068 10.7154C66.4068 10.7154 63.2572 12.6244 61.72 13.5933C53.9335 18.4851 45.1102 24.033 38.7242 18.3165C36.6575 16.4669 34.8593 16.1057 32.454 16.1057C26.2792 16.1057 17.4276 22.8084 14.1512 29.1885C11.5385 34.2802 11.4541 38.2914 13.9154 40.4843C16.5393 42.8183 21.8362 42.8005 27.7389 40.4322C31.2972 39.0033 34.3471 38.2914 36.9112 38.2914Z" fill="url(#paint1_linear_4015_83)"/>
<path d="M42.6003 26.5442L39.7228 33.0752H41.084L41.5605 31.9622H43.2811L43.8703 30.6639H42.1176L43.3273 27.8388L45.5768 33.0746H46.9275L44.0605 26.5436H42.6009L42.6003 26.5442ZM73.2206 26.5774C70.8861 26.5774 69.959 27.718 69.959 29.8091C69.959 31.8941 70.8825 33.0415 73.2206 33.0415C75.5551 33.0415 76.4724 31.8941 76.4792 29.8097C76.4724 27.7186 75.5551 26.5774 73.2206 26.5774ZM73.2206 31.8622C71.7751 31.8622 71.1823 31.3078 71.1823 29.8097C71.1823 28.3042 71.7714 27.7492 73.2206 27.7492C74.6667 27.7492 75.2485 28.3042 75.2485 29.8097C75.2485 31.3078 74.6667 31.8622 73.2206 31.8622ZM26.3832 26.5706V33.0451H27.5714V27.8651H31.525V33.0451H32.7169V26.5706H26.3832ZM77.3755 26.5706V33.0451H78.5674V27.8651H82.5204V33.0451H83.7086V26.5706H77.3755ZM40.2313 28.5109C40.2313 28.2441 40.1857 27.9915 40.0903 27.7566C40.0009 27.5301 39.8721 27.3211 39.7099 27.1391C39.5512 26.9649 39.3593 26.824 39.1453 26.7245C38.9282 26.6225 38.691 26.5699 38.4509 26.5706H33.9334L34.5225 27.8688H38.4503C38.6165 27.8688 38.7575 27.932 38.8701 28.0546C38.9834 28.1773 39.0431 28.3288 39.0431 28.5072C39.0431 28.6863 38.9865 28.8408 38.8708 28.9671C38.8191 29.0277 38.7547 29.0761 38.6822 29.109C38.6096 29.1418 38.5306 29.1583 38.4509 29.1572H35.7107C35.4638 29.1572 35.2348 29.2094 35.0163 29.3105C34.8016 29.4104 34.6095 29.5527 34.4517 29.7288C34.2885 29.9102 34.1595 30.1193 34.0707 30.3463C33.975 30.5875 33.9272 30.8449 33.9297 31.1043V33.0482H35.1179V31.1079C35.1179 30.9289 35.1745 30.7743 35.2908 30.6443C35.3425 30.5839 35.4069 30.5356 35.4795 30.5028C35.5521 30.4701 35.631 30.4537 35.7107 30.4548H38.4503C38.6978 30.4548 38.9268 30.4027 39.1459 30.3009C39.3608 30.1991 39.551 30.0587 39.7099 29.8864C39.8681 29.711 39.9955 29.5074 40.0903 29.2725C40.1827 29.0303 40.2313 28.7776 40.2313 28.5109ZM48.6766 31.1778V26.5774H47.4884V33.0451H48.6766L52.8272 28.4275V33.0451H54.019V26.5774H52.8272L48.6766 31.1778ZM51.961 25.9991L52.5532 25.0516H49.5803L49.813 25.9991H51.961ZM59.3159 30.3671L56.516 26.5706H55.3279V33.0451H56.516V28.6409L59.3159 32.4276L62.1128 28.6409V33.0451H63.3046V26.5706H62.1128L59.3159 30.3671ZM64.0816 27.8651H66.2467V33.0451H67.4386V27.8651H69.4419V26.5706H64.0816V27.8651Z" fill="white"/>
<path d="M56.516 26.5706L59.3159 30.3671L62.1128 26.5706H63.3046V33.0451H62.1128V28.6409L59.3159 32.4276L56.516 28.6409V33.0451H55.3279V26.5706H56.516Z" fill="white"/>
<path d="M74.4321 64.1743H72.194V63.2544H77.7347V64.1743H75.6641V70H74.4321V64.1743Z" fill="white"/>
<path d="M56.0499 64.4895C56.1431 64.7341 56.1876 64.9972 56.1876 65.275C56.1876 65.5528 56.1401 65.8159 56.0499 66.0681C55.9572 66.3127 55.8327 66.5247 55.6782 66.7074C55.523 66.8868 55.3372 67.033 55.1273 67.1391C54.9132 67.2451 54.6894 67.2993 54.4476 67.2993H51.7713C51.6934 67.2981 51.6163 67.3152 51.5454 67.3493C51.4745 67.3834 51.4116 67.4337 51.3611 67.4967C51.2474 67.6321 51.1921 67.793 51.1921 67.9795V70H50.0313V67.9756C50.0289 67.7055 50.0757 67.4375 50.1691 67.1863C50.2558 66.95 50.3819 66.7321 50.5414 66.5432C50.6955 66.3599 50.8831 66.2117 51.0929 66.1077C51.3064 66.0023 51.5301 65.9481 51.7713 65.9481H54.4482C54.5261 65.9492 54.6033 65.932 54.6742 65.8978C54.7451 65.8636 54.808 65.8131 54.8584 65.7501C54.9715 65.6185 55.0268 65.4576 55.0268 65.2711C55.0268 65.0853 54.9685 64.9276 54.8578 64.7998C54.7478 64.6721 54.61 64.6063 54.4476 64.6063H50.6105L50.035 63.2544H54.4482C54.6828 63.2537 54.9145 63.3084 55.1267 63.4147C55.3357 63.5183 55.5231 63.6651 55.6782 63.8464C55.8366 64.0359 55.9625 64.2536 56.0499 64.4895Z" fill="white"/>
<path d="M40.7967 70L43.7472 63.255L43.7479 63.2544H45.2446L48.1843 69.9994H46.7994L44.4928 64.592L43.2523 67.5098H45.0495L44.4454 68.8505H42.681L42.1925 70H40.7967Z" fill="white"/>
<path d="M32.1255 63.2544L34.9347 67.2099L37.7408 63.2544H38.9366V70H37.7408V65.4114L34.9347 69.3566L32.1255 65.4114V70H30.9334V63.2544H32.1255Z" fill="white"/>
<path d="M62.24 70L60.0873 66.7139L61.041 66.0876L63.5752 70H62.24ZM58.0345 70V63.2544H59.1971V70H58.0345ZM58.8429 67.1572V66.0779H60.9865V67.1572H58.8429ZM61.15 66.7718L60.0691 66.6176L62.24 63.2544H63.4934L61.15 66.7718Z" fill="white"/>
<path d="M66.5478 66.0586H69.8124V67.0898H66.5478V66.0586ZM66.6416 68.9496H70.3471V70H65.4221V63.2544H70.2158V64.3048H66.6416V68.9496Z" fill="white"/>
<defs>
<linearGradient id="paint0_linear_4015_83" x1="-12.731" y1="-18.6754" x2="133.206" y2="37.7007" gradientUnits="userSpaceOnUse">
<stop offset="0.088" stop-color="#8AB5E1"/>
<stop offset="0.253" stop-color="#4A85C5"/>
<stop offset="0.506" stop-color="#23185B"/>
<stop offset="0.772" stop-color="#417EC1"/>
</linearGradient>
<linearGradient id="paint1_linear_4015_83" x1="102.391" y1="-6.82775" x2="-4.54411" y2="65.1197" gradientUnits="userSpaceOnUse">
<stop stop-color="#F59B17"/>
<stop offset="0.238" stop-color="#E7431E"/>
<stop offset="0.522" stop-color="#B24455"/>
<stop offset="0.714" stop-color="#E84A1E"/>
<stop offset="1" stop-color="#F0821B"/>
</linearGradient>
</defs>
</svg>
